<svg width="39" height="40" viewBox="0 0 39 40" fill="none" xmlns="http://www.w3.org/2000/svg">
<g clip-path="url(#clip0_62_993)">
<path d="M35.4314 19.9719C35.4314 19.2982 35.7251 18.5122 36.0079 17.75C36.4355 16.6034 36.876 15.4157 36.5089 14.2821C36.1245 13.0988 35.0427 12.3862 33.9976 11.6995C33.3109 11.2483 32.6631 10.8207 32.2939 10.3133C31.9182 9.79503 31.7066 9.03926 31.4863 8.23816C31.1538 7.03973 30.8104 5.80244 29.8193 5.07907C28.8368 4.36433 27.5607 4.41831 26.3255 4.47014C25.4899 4.50469 24.6996 4.53924 24.0777 4.33626C23.4968 4.1484 22.9009 3.66903 22.2682 3.16375C21.2835 2.3756 20.2665 1.56153 18.999 1.56153C17.7314 1.56153 16.7144 2.3756 15.7297 3.16375C15.0971 3.66903 14.5011 4.1484 13.9202 4.33626C13.2983 4.53708 12.5102 4.50469 11.6724 4.46798C10.4372 4.41616 9.15893 4.36217 8.1786 5.07691C7.18747 5.79812 6.84413 7.03757 6.5116 8.236C6.28919 9.0371 6.07973 9.79287 5.70401 10.3111C5.33477 10.8185 4.68697 11.2461 4.00031 11.6974C2.95519 12.3862 1.87337 13.0966 1.49117 14.2799C1.12193 15.4136 1.56459 16.5991 1.99214 17.7478C2.27501 18.5101 2.56868 19.296 2.56868 19.9698C2.56868 20.6435 2.27501 21.4295 1.99214 22.1917C1.56459 23.3383 1.12409 24.5259 1.49117 25.6596C1.87553 26.8429 2.95519 27.5555 4.00031 28.2421C4.68697 28.6934 5.33477 29.121 5.70401 29.6284C6.07973 30.1466 6.29135 30.9024 6.5116 31.7035C6.84413 32.9019 7.18747 34.1392 8.1786 34.8604C9.16109 35.5752 10.4372 35.5212 11.6724 35.4694C12.508 35.4348 13.2983 35.4003 13.9202 35.6032C14.5011 35.7911 15.0971 36.2705 15.7297 36.7758C16.7144 37.5639 17.7314 38.378 18.999 38.378C20.2665 38.378 21.2835 37.5639 22.2682 36.7758C22.9009 36.2705 23.4968 35.7911 24.0777 35.6032C24.6996 35.4024 25.4877 35.4348 26.3255 35.4694C27.5607 35.5212 28.839 35.5752 29.8193 34.8604C30.8104 34.1392 31.1538 32.8998 31.4863 31.7035C31.7087 30.9024 31.9182 30.1466 32.2939 29.6284C32.6631 29.121 33.3109 28.6934 33.9976 28.2421C35.0427 27.5533 36.1245 26.8429 36.5089 25.6596C36.876 24.5259 36.4355 23.3405 36.0079 22.1917C35.7251 21.4295 35.4314 20.6435 35.4314 19.9698V19.9719ZM12.9226 24.9923C10.6467 24.9923 8.84583 23.7011 8.39885 22.1183C8.29088 21.7361 8.57807 21.356 8.97538 21.356H10.1976C10.4264 21.356 10.6316 21.4878 10.7352 21.6907C11.0397 22.291 12.074 22.8913 12.9464 22.8913C14.5767 22.8913 15.2979 22.4702 15.2979 21.3474C15.2979 20.2246 14.0671 19.7819 12.711 19.4882C10.9382 19.1039 8.61262 18.2164 8.61262 15.3207C8.61262 13.1269 10.1112 11.8766 12.901 11.8766C15.6909 11.8766 17.0512 13.2219 17.3168 14.8975C17.3751 15.2603 17.0901 15.5863 16.723 15.5863H15.5937C15.3195 15.5863 15.0798 15.4006 15.0128 15.135C14.7948 14.2627 13.9138 13.982 12.8082 13.982C11.532 13.982 10.9145 14.565 10.9145 15.3186C10.9145 16.4846 12.1107 16.9705 13.5164 17.29C15.3411 17.7046 17.6019 18.4798 17.6019 21.2805C17.6019 23.6406 15.896 24.9945 12.9205 24.9945L12.9226 24.9923ZM29.6207 26.4974C29.6207 26.8494 29.3464 27.1149 28.9837 27.1149H28.0141C27.7744 27.1149 27.5132 27.0696 27.1957 26.5341L22.2336 18.3416V21.6778C22.2336 23.6967 22.3157 25.8388 18.8089 27.9096C18.241 28.2443 17.509 28.0305 17.2067 27.4453C16.9303 26.9141 17.1031 26.2599 17.604 25.9316C17.7444 25.8388 17.9042 25.7373 18.0791 25.6229C19.0292 25.0075 19.9577 24.4525 19.9577 21.6756V14.9839C19.9577 14.6211 20.2233 14.3469 20.5753 14.3469H21.9335C22.2336 14.3469 22.4819 14.5693 22.5964 14.7917L27.3447 22.6775V14.9839C27.3447 14.6211 27.6103 14.3469 27.9623 14.3469H28.9837C29.3464 14.3469 29.6207 14.6211 29.6207 14.9839V26.4952V26.4974Z" fill="#0477AD"/>
</g>
<defs>
<clipPath id="clip0_62_993">
<rect width="35.2941" height="36.8121" fill="white" transform="translate(1.35297 1.56587)"/>
</clipPath>
</defs>
</svg>
